/* XPM */
static const char  * saverec_xpm[] = {
"16 15 3 1",
" 	c None",
".	c #000000",
"+	c #3232C8",
"                ",
"                ",
"   .   +   + .  ",
"   .+++ +++ +.  ",
"   .+ + + + +.  ",
"   .+ + + + +.  ",
"   .+ + + + +.  ",
" ++.+ + + + +.+ ",
"   .+ + + + +.  ",
"   .+ + + + +.  ",
"   .+ + + + +.  ",
"   .+ +++ +++.  ",
"   .   +   + .  ",
"                ",
"                "};
